<svg width="2104" height="1300" xmlns="http://www.w3.org/2000/svg" xmlns:xlink="http://www.w3.org/1999/xlink" xml:space="preserve" overflow="hidden"><defs><filter id="fx0" x="-10%" y="-10%" width="120%" height="120%" filterUnits="userSpaceOnUse" primitiveUnits="userSpaceOnUse"><feComponentTransfer color-interpolation-filters="sRGB"><feFuncR type="discrete" tableValues="0 0"/><feFuncG type="discrete" tableValues="0 0"/><feFuncB type="discrete" tableValues="0 0"/><feFuncA type="linear" slope="0.34902" intercept="0"/></feComponentTransfer><feGaussianBlur stdDeviation="4.8119 4.8119"/></filter><filter id="fx1" x="-10%" y="-10%" width="120%" height="120%" filterUnits="userSpaceOnUse" primitiveUnits="userSpaceOnUse"><feComponentTransfer color-interpolation-filters="sRGB"><feFuncR type="discrete" tableValues="0 0"/><feFuncG type="discrete" tableValues="0 0"/><feFuncB type="discrete" tableValues="0 0"/><feFuncA type="linear" slope="0.34902" intercept="0"/></feComponentTransfer><feGaussianBlur stdDeviation="4.8119 4.8119"/></filter><clipPath id="clip2"><rect x="1604" y="3442" width="2104" height="1300"/></clipPath><clipPath id="clip3"><rect x="1756" y="3623" width="1902" height="850"/></clipPath><clipPath id="clip4"><rect x="1756" y="3623" width="1902" height="850"/></clipPath></defs><g clip-path="url(#clip2)" transform="translate(-1604 -3442)"><rect x="1605" y="3443" width="2101" height="1297" fill="#FFFFFF"/><g><path d="M1756.5 4364.64 3655.5 4364.64M1756.5 4258.64 3655.5 4258.64M1756.5 4152.64 3655.5 4152.64M1756.5 4046.63 3655.5 4046.63M1756.5 3941.63 3655.5 3941.63M1756.5 3835.63 3655.5 3835.63M1756.5 3729.62 3655.5 3729.62M1756.5 3623.5 3655.5 3623.5" stroke="#D9D9D9" stroke-width="3.4375" stroke-linejoin="round" stroke-miterlimit="10" fill="none"/></g><g><path d="M1756.5 3623.5 1756.5 4469.5M1829.56 3623.5 1829.56 4469.5M1902.56 3623.5 1902.56 4469.5M1975.57 3623.5 1975.57 4469.5M2048.57 3623.5 2048.57 4469.5M2121.57 3623.5 2121.57 4469.5M2194.57 3623.5 2194.57 4469.5M2267.57 3623.5 2267.57 4469.5M2340.58 3623.5 2340.58 4469.5M2413.58 3623.5 2413.58 4469.5M2486.58 3623.5 2486.58 4469.5M2559.58 3623.5 2559.58 4469.5M2632.59 3623.5 2632.59 4469.5M2706.59 3623.5 2706.59 4469.5M2779.59 3623.5 2779.59 4469.5M2852.59 3623.5 2852.59 4469.5M2925.6 3623.5 2925.6 4469.5M2998.6 3623.5 2998.6 4469.5M3071.6 3623.5 3071.6 4469.5M3144.6 3623.5 3144.6 4469.5M3217.61 3623.5 3217.61 4469.5M3290.61 3623.5 3290.61 4469.5M3363.61 3623.5 3363.61 4469.5M3436.61 3623.5 3436.61 4469.5M3509.62 3623.5 3509.62 4469.5M3582.62 3623.5 3582.62 4469.5M3655.5 3623.5 3655.5 4469.5" stroke="#D9D9D9" stroke-width="3.4375" stroke-linejoin="round" stroke-miterlimit="10" fill="none"/></g><g><path d="M1756.5 4469.5 3655.5 4469.5" stroke="#D9D9D9" stroke-width="4.58333" stroke-linejoin="round" stroke-miterlimit="10" fill="none" fill-rule="evenodd"/></g><g><path d="M1756.5 4469.5 1756.5 4483.5M1829.56 4469.5 1829.56 4483.5M1902.56 4469.5 1902.56 4483.5M1975.57 4469.5 1975.57 4483.5M2048.57 4469.5 2048.57 4483.5M2121.57 4469.5 2121.57 4483.5M2194.57 4469.5 2194.57 4483.5M2267.57 4469.5 2267.57 4483.5M2340.58 4469.5 2340.58 4483.5M2413.58 4469.5 2413.58 4483.5M2486.58 4469.5 2486.58 4483.5M2559.58 4469.5 2559.58 4483.5M2632.59 4469.5 2632.59 4483.5M2706.59 4469.5 2706.59 4483.5M2779.59 4469.5 2779.59 4483.5M2852.59 4469.5 2852.59 4483.5M2925.6 4469.5 2925.6 4483.5M2998.6 4469.5 2998.6 4483.5M3071.6 4469.5 3071.6 4483.5M3144.6 4469.5 3144.6 4483.5M3217.61 4469.5 3217.61 4483.5M3290.61 4469.5 3290.61 4483.5M3363.61 4469.5 3363.61 4483.5M3436.61 4469.5 3436.61 4483.5M3509.62 4469.5 3509.62 4483.5M3582.62 4469.5 3582.62 4483.5M3655.5 4469.5 3655.5 4483.5" stroke="#D9D9D9" stroke-width="4.58333" stroke-linejoin="round" stroke-miterlimit="10" fill="none"/></g><g clip-path="url(#clip3)"><g filter="url(#fx0)" transform="translate(1771 3677)"><g><path d="M22.4999 799.8 95.5615 792.947 168.564 770.946 241.566 739.945 314.569 707.944 387.571 669.943 460.573 648.942 533.576 615.941 606.578 562.94 679.581 557.939 752.583 514.938 825.585 495.937 898.588 473.937 971.59 415.935 1044.59 350.933 1117.59 342.932 1190.6 320.932 1263.6 286.93 1336.6 220.928 1409.6 194.927 1482.61 208.928 1555.61 183.927 1628.61 143.926 1701.61 60.923 1774.62 84.9238 1847.5 22.8005" stroke="#4F81BD" stroke-width="13" stroke-linecap="round" stroke-linejoin="round" stroke-miterlimit="10" fill="none"/></g></g></g><g clip-path="url(#clip4)"><g filter="url(#fx1)" transform="translate(1771 4383)"><g><path d="M22.4999 94.8006 95.5615 92.9474 168.564 92.9474 241.566 91.9474 314.569 91.9474 387.571 83.9471 460.573 91.9474 533.576 78.947 606.578 79.947 679.581 86.9472 752.583 76.9469 825.585 87.9473 898.588 92.9474 971.59 57.9463 1044.59 47.946 1117.59 81.9471 1190.6 65.9465 1263.6 70.9467 1336.6 50.9461 1409.6 37.9456 1482.61 90.9474 1555.61 69.9467 1628.61 90.9474 1701.61 22.8008 1774.62 79.947 1847.5 58.9463" stroke="#C0504D" stroke-width="13" stroke-linecap="round" stroke-linejoin="round" stroke-miterlimit="10" fill="none"/></g></g></g><g><path d="M1793.5 4468.5 1866.56 4461.65 1939.56 4439.65 2012.57 4408.64 2085.57 4376.64 2158.57 4338.64 2231.57 4317.64 2304.58 4284.64 2377.58 4231.64 2450.58 4226.64 2523.58 4183.64 2596.59 4164.64 2669.59 4142.64 2742.59 4084.63 2815.59 4019.63 2888.59 4011.63 2961.6 3989.63 3034.6 3955.63 3107.6 3889.63 3180.6 3863.63 3253.61 3877.63 3326.61 3852.63 3399.61 3812.63 3472.61 3729.62 3545.62 3753.62 3618.5 3691.5" stroke="#4F81BD" stroke-width="12.6042" stroke-linecap="round" stroke-linejoin="round" stroke-miterlimit="10" fill="none"/></g><g><path d="M1793.5 4469.5 1866.56 4467.65 1939.56 4467.65 2012.57 4466.65 2085.57 4466.65 2158.57 4458.65 2231.57 4466.65 2304.58 4453.65 2377.58 4454.65 2450.58 4461.65 2523.58 4451.65 2596.59 4462.65 2669.59 4467.65 2742.59 4432.65 2815.59 4422.65 2888.59 4456.65 2961.6 4440.65 3034.6 4445.65 3107.6 4425.65 3180.6 4412.65 3253.61 4465.65 3326.61 4444.65 3399.61 4465.65 3472.61 4397.5 3545.62 4454.65 3618.5 4433.65" stroke="#C0504D" stroke-width="12.6042" stroke-linecap="round" stroke-linejoin="round" stroke-miterlimit="10" fill="none"/></g><g><text fill="#595959" font-family="Calibri,Calibri_MSFontService,sans-serif" font-weight="400" font-size="41" transform="matrix(1 0 0 1 1697.8 4482)">0</text></g><g><text fill="#595959" font-family="Calibri,Calibri_MSFontService,sans-serif" font-weight="400" font-size="41" transform="matrix(1 0 0 1 1656 4376)">200</text></g><g><text fill="#595959" font-family="Calibri,Calibri_MSFontService,sans-serif" font-weight="400" font-size="41" transform="matrix(1 0 0 1 1656 4270)">400</text></g><g><text fill="#595959" font-family="Calibri,Calibri_MSFontService,sans-serif" font-weight="400" font-size="41" transform="matrix(1 0 0 1 1656 4164)">600</text></g><g><text fill="#595959" font-family="Calibri,Calibri_MSFontService,sans-serif" font-weight="400" font-size="41" transform="matrix(1 0 0 1 1656 4058)">800</text></g><g><text fill="#595959" font-family="Calibri,Calibri_MSFontService,sans-serif" font-weight="400" font-size="41" transform="matrix(1 0 0 1 1635.1 3953)">1000</text></g><g><text fill="#595959" font-family="Calibri,Calibri_MSFontService,sans-serif" font-weight="400" font-size="41" transform="matrix(1 0 0 1 1635.1 3847)">1200</text></g><g><text fill="#595959" font-family="Calibri,Calibri_MSFontService,sans-serif" font-weight="400" font-size="41" transform="matrix(1 0 0 1 1635.1 3741)">1400</text></g><g><text fill="#595959" font-family="Calibri,Calibri_MSFontService,sans-serif" font-weight="400" font-size="41" transform="matrix(1 0 0 1 1635.1 3635)">1600</text></g><g><text fill="#595959" font-family="Calibri,Calibri_MSFontService,sans-serif" font-weight="400" font-size="41" transform="matrix(0.707107 -0.707107 0.707107 0.707107 1773.69 4553)">50</text></g><g><text fill="#595959" font-family="Calibri,Calibri_MSFontService,sans-serif" font-weight="400" font-size="41" transform="matrix(0.707107 -0.707107 0.707107 0.707107 1831.93 4568)">250</text></g><g><text fill="#595959" font-family="Calibri,Calibri_MSFontService,sans-serif" font-weight="400" font-size="41" transform="matrix(0.707107 -0.707107 0.707107 0.707107 1890.16 4583)">1000</text></g><g><text fill="#595959" font-family="Calibri,Calibri_MSFontService,sans-serif" font-weight="400" font-size="41" transform="matrix(0.707107 -0.707107 0.707107 0.707107 1963.17 4583)">2000</text></g><g><text fill="#595959" font-family="Calibri,Calibri_MSFontService,sans-serif" font-weight="400" font-size="41" transform="matrix(0.707107 -0.707107 0.707107 0.707107 2036.17 4583)">3000</text></g><g><text fill="#595959" font-family="Calibri,Calibri_MSFontService,sans-serif" font-weight="400" font-size="41" transform="matrix(0.707107 -0.707107 0.707107 0.707107 2109.18 4583)">4000</text></g><g><text fill="#595959" font-family="Calibri,Calibri_MSFontService,sans-serif" font-weight="400" font-size="41" transform="matrix(0.707107 -0.707107 0.707107 0.707107 2182.19 4583)">5000</text></g><g><text fill="#595959" font-family="Calibri,Calibri_MSFontService,sans-serif" font-weight="400" font-size="41" transform="matrix(0.707107 -0.707107 0.707107 0.707107 2255.2 4583)">6000</text></g><g><text fill="#595959" font-family="Calibri,Calibri_MSFontService,sans-serif" font-weight="400" font-size="41" transform="matrix(0.707107 -0.707107 0.707107 0.707107 2328.21 4583)">7000</text></g><g><text fill="#595959" font-family="Calibri,Calibri_MSFontService,sans-serif" font-weight="400" font-size="41" transform="matrix(0.707107 -0.707107 0.707107 0.707107 2401.22 4583)">8000</text></g><g><text fill="#595959" font-family="Calibri,Calibri_MSFontService,sans-serif" font-weight="400" font-size="41" transform="matrix(0.707107 -0.707107 0.707107 0.707107 2474.23 4583)">9000</text></g><g><text fill="#595959" font-family="Calibri,Calibri_MSFontService,sans-serif" font-weight="400" font-size="41" transform="matrix(0.707107 -0.707107 0.707107 0.707107 2532.46 4598)">10000</text></g><g><text fill="#595959" font-family="Calibri,Calibri_MSFontService,sans-serif" font-weight="400" font-size="41" transform="matrix(0.707107 -0.707107 0.707107 0.707107 2605.47 4598)">11000</text></g><g><text fill="#595959" font-family="Calibri,Calibri_MSFontService,sans-serif" font-weight="400" font-size="41" transform="matrix(0.707107 -0.707107 0.707107 0.707107 2678.48 4598)">12000</text></g><g><text fill="#595959" font-family="Calibri,Calibri_MSFontService,sans-serif" font-weight="400" font-size="41" transform="matrix(0.707107 -0.707107 0.707107 0.707107 2751.49 4598)">13000</text></g><g><text fill="#595959" font-family="Calibri,Calibri_MSFontService,sans-serif" font-weight="400" font-size="41" transform="matrix(0.707107 -0.707107 0.707107 0.707107 2824.5 4598)">14000</text></g><g><text fill="#595959" font-family="Calibri,Calibri_MSFontService,sans-serif" font-weight="400" font-size="41" transform="matrix(0.707107 -0.707107 0.707107 0.707107 2897.51 4598)">15000</text></g><g><text fill="#595959" font-family="Calibri,Calibri_MSFontService,sans-serif" font-weight="400" font-size="41" transform="matrix(0.707107 -0.707107 0.707107 0.707107 2970.51 4598)">16000</text></g><g><text fill="#595959" font-family="Calibri,Calibri_MSFontService,sans-serif" font-weight="400" font-size="41" transform="matrix(0.707107 -0.707107 0.707107 0.707107 3043.52 4598)">17000</text></g><g><text fill="#595959" font-family="Calibri,Calibri_MSFontService,sans-serif" font-weight="400" font-size="41" transform="matrix(0.707107 -0.707107 0.707107 0.707107 3116.53 4598)">18000</text></g><g><text fill="#595959" font-family="Calibri,Calibri_MSFontService,sans-serif" font-weight="400" font-size="41" transform="matrix(0.707107 -0.707107 0.707107 0.707107 3189.54 4598)">19000</text></g><g><text fill="#595959" font-family="Calibri,Calibri_MSFontService,sans-serif" font-weight="400" font-size="41" transform="matrix(0.707107 -0.707107 0.707107 0.707107 3262.55 4598)">20000</text></g><g><text fill="#595959" font-family="Calibri,Calibri_MSFontService,sans-serif" font-weight="400" font-size="41" transform="matrix(0.707107 -0.707107 0.707107 0.707107 3335.56 4598)">21000</text></g><g><text fill="#595959" font-family="Calibri,Calibri_MSFontService,sans-serif" font-weight="400" font-size="41" transform="matrix(0.707107 -0.707107 0.707107 0.707107 3408.57 4598)">22000</text></g><g><text fill="#595959" font-family="Calibri,Calibri_MSFontService,sans-serif" font-weight="400" font-size="41" transform="matrix(0.707107 -0.707107 0.707107 0.707107 3481.58 4598)">23000</text></g><g><text fill="#595959" font-family="Calibri,Calibri_MSFontService,sans-serif" font-weight="400" font-size="41" transform="matrix(0.707107 -0.707107 0.707107 0.707107 3554.59 4598)">24000</text></g><g><text fill="#595959" font-family="Calibri,Calibri_MSFontService,sans-serif" font-weight="700" font-size="73" transform="matrix(1 0 0 1 2363.07 3547)">Standard Deviation</text></g><g><path d="M2348.5 4674.5 2436.5 4674.5" stroke="#4F81BD" stroke-width="12.6042" stroke-linecap="round" stroke-linejoin="round" stroke-miterlimit="10" fill="none" fill-rule="evenodd"/></g><g><text fill="#595959" font-family="Calibri,Calibri_MSFontService,sans-serif" font-weight="400" font-size="41" transform="matrix(1 0 0 1 2445.53 4686)">Mean (ms)</text></g><g><path d="M2679.5 4674.5 2767.5 4674.5" stroke="#C0504D" stroke-width="12.6042" stroke-linecap="round" stroke-linejoin="round" stroke-miterlimit="10" fill="none" fill-rule="evenodd"/></g><g><text fill="#595959" font-family="Calibri,Calibri_MSFontService,sans-serif" font-weight="400" font-size="41" transform="matrix(1 0 0 1 2776.42 4686)">StdDev (ms)</text></g><rect x="1605.5" y="3443.5" width="2101" height="1297" stroke="#D9D9D9" stroke-width="3.4375" stroke-linejoin="round" stroke-miterlimit="10" fill="none"/></g></svg>