<svg width="1980" height="1296" xmlns="http://www.w3.org/2000/svg" xmlns:xlink="http://www.w3.org/1999/xlink" xml:space="preserve" overflow="hidden"><defs><filter id="fx0" x="-10%" y="-10%" width="120%" height="120%" filterUnits="userSpaceOnUse" primitiveUnits="userSpaceOnUse"><feComponentTransfer color-interpolation-filters="sRGB"><feFuncR type="discrete" tableValues="0 0"/><feFuncG type="discrete" tableValues="0 0"/><feFuncB type="discrete" tableValues="0 0"/><feFuncA type="linear" slope="0.34902" intercept="0"/></feComponentTransfer><feGaussianBlur stdDeviation="4.8119 4.8119"/></filter><filter id="fx1" x="-10%" y="-10%" width="120%" height="120%" filterUnits="userSpaceOnUse" primitiveUnits="userSpaceOnUse"><feComponentTransfer color-interpolation-filters="sRGB"><feFuncR type="discrete" tableValues="0 0"/><feFuncG type="discrete" tableValues="0 0"/><feFuncB type="discrete" tableValues="0 0"/><feFuncA type="linear" slope="0.34902" intercept="0"/></feComponentTransfer><feGaussianBlur stdDeviation="4.8119 4.8119"/></filter><filter id="fx2" x="-10%" y="-10%" width="120%" height="120%" filterUnits="userSpaceOnUse" primitiveUnits="userSpaceOnUse"><feComponentTransfer color-interpolation-filters="sRGB"><feFuncR type="discrete" tableValues="0 0"/><feFuncG type="discrete" tableValues="0 0"/><feFuncB type="discrete" tableValues="0 0"/><feFuncA type="linear" slope="0.34902" intercept="0"/></feComponentTransfer><feGaussianBlur stdDeviation="4.8119 4.8119"/></filter><filter id="fx3" x="-10%" y="-10%" width="120%" height="120%" filterUnits="userSpaceOnUse" primitiveUnits="userSpaceOnUse"><feComponentTransfer color-interpolation-filters="sRGB"><feFuncR type="discrete" tableValues="0 0"/><feFuncG type="discrete" tableValues="0 0"/><feFuncB type="discrete" tableValues="0 0"/><feFuncA type="linear" slope="0.34902" intercept="0"/></feComponentTransfer><feGaussianBlur stdDeviation="4.8119 4.8119"/></filter><filter id="fx4" x="-10%" y="-10%" width="120%" height="120%" filterUnits="userSpaceOnUse" primitiveUnits="userSpaceOnUse"><feComponentTransfer color-interpolation-filters="sRGB"><feFuncR type="discrete" tableValues="0 0"/><feFuncG type="discrete" tableValues="0 0"/><feFuncB type="discrete" tableValues="0 0"/><feFuncA type="linear" slope="0.34902" intercept="0"/></feComponentTransfer><feGaussianBlur stdDeviation="4.8119 4.8119"/></filter><filter id="fx5" x="-10%" y="-10%" width="120%" height="120%" filterUnits="userSpaceOnUse" primitiveUnits="userSpaceOnUse"><feComponentTransfer color-interpolation-filters="sRGB"><feFuncR type="discrete" tableValues="0 0"/><feFuncG type="discrete" tableValues="0 0"/><feFuncB type="discrete" tableValues="0 0"/><feFuncA type="linear" slope="0.34902" intercept="0"/></feComponentTransfer><feGaussianBlur stdDeviation="4.8119 4.8119"/></filter><filter id="fx6" x="-10%" y="-10%" width="120%" height="120%" filterUnits="userSpaceOnUse" primitiveUnits="userSpaceOnUse"><feComponentTransfer color-interpolation-filters="sRGB"><feFuncR type="discrete" tableValues="0 0"/><feFuncG type="discrete" tableValues="0 0"/><feFuncB type="discrete" tableValues="0 0"/><feFuncA type="linear" slope="0.34902" intercept="0"/></feComponentTransfer><feGaussianBlur stdDeviation="4.8119 4.8119"/></filter><filter id="fx7" x="-10%" y="-10%" width="120%" height="120%" filterUnits="userSpaceOnUse" primitiveUnits="userSpaceOnUse"><feComponentTransfer color-interpolation-filters="sRGB"><feFuncR type="discrete" tableValues="0 0"/><feFuncG type="discrete" tableValues="0 0"/><feFuncB type="discrete" tableValues="0 0"/><feFuncA type="linear" slope="0.34902" intercept="0"/></feComponentTransfer><feGaussianBlur stdDeviation="4.8119 4.8119"/></filter><filter id="fx8" x="-10%" y="-10%" width="120%" height="120%" filterUnits="userSpaceOnUse" primitiveUnits="userSpaceOnUse"><feComponentTransfer color-interpolation-filters="sRGB"><feFuncR type="discrete" tableValues="0 0"/><feFuncG type="discrete" tableValues="0 0"/><feFuncB type="discrete" tableValues="0 0"/><feFuncA type="linear" slope="0.34902" intercept="0"/></feComponentTransfer><feGaussianBlur stdDeviation="4.8119 4.8119"/></filter><filter id="fx9" x="-10%" y="-10%" width="120%" height="120%" filterUnits="userSpaceOnUse" primitiveUnits="userSpaceOnUse"><feComponentTransfer color-interpolation-filters="sRGB"><feFuncR type="discrete" tableValues="0 0"/><feFuncG type="discrete" tableValues="0 0"/><feFuncB type="discrete" tableValues="0 0"/><feFuncA type="linear" slope="0.34902" intercept="0"/></feComponentTransfer><feGaussianBlur stdDeviation="4.8119 4.8119"/></filter><filter id="fx10" x="-10%" y="-10%" width="120%" height="120%" filterUnits="userSpaceOnUse" primitiveUnits="userSpaceOnUse"><feComponentTransfer color-interpolation-filters="sRGB"><feFuncR type="discrete" tableValues="0 0"/><feFuncG type="discrete" tableValues="0 0"/><feFuncB type="discrete" tableValues="0 0"/><feFuncA type="linear" slope="0.34902" intercept="0"/></feComponentTransfer><feGaussianBlur stdDeviation="4.8119 4.8119"/></filter><filter id="fx11" x="-10%" y="-10%" width="120%" height="120%" filterUnits="userSpaceOnUse" primitiveUnits="userSpaceOnUse"><feComponentTransfer color-interpolation-filters="sRGB"><feFuncR type="discrete" tableValues="0 0"/><feFuncG type="discrete" tableValues="0 0"/><feFuncB type="discrete" tableValues="0 0"/><feFuncA type="linear" slope="0.34902" intercept="0"/></feComponentTransfer><feGaussianBlur stdDeviation="4.8119 4.8119"/></filter><filter id="fx12" x="-10%" y="-10%" width="120%" height="120%" filterUnits="userSpaceOnUse" primitiveUnits="userSpaceOnUse"><feComponentTransfer color-interpolation-filters="sRGB"><feFuncR type="discrete" tableValues="0 0"/><feFuncG type="discrete" tableValues="0 0"/><feFuncB type="discrete" tableValues="0 0"/><feFuncA type="linear" slope="0.34902" intercept="0"/></feComponentTransfer><feGaussianBlur stdDeviation="4.8119 4.8119"/></filter><filter id="fx13" x="-10%" y="-10%" width="120%" height="120%" filterUnits="userSpaceOnUse" primitiveUnits="userSpaceOnUse"><feComponentTransfer color-interpolation-filters="sRGB"><feFuncR type="discrete" tableValues="0 0"/><feFuncG type="discrete" tableValues="0 0"/><feFuncB type="discrete" tableValues="0 0"/><feFuncA type="linear" slope="0.34902" intercept="0"/></feComponentTransfer><feGaussianBlur stdDeviation="4.8119 4.8119"/></filter><filter id="fx14" x="-10%" y="-10%" width="120%" height="120%" filterUnits="userSpaceOnUse" primitiveUnits="userSpaceOnUse"><feComponentTransfer color-interpolation-filters="sRGB"><feFuncR type="discrete" tableValues="0 0"/><feFuncG type="discrete" tableValues="0 0"/><feFuncB type="discrete" tableValues="0 0"/><feFuncA type="linear" slope="0.34902" intercept="0"/></feComponentTransfer><feGaussianBlur stdDeviation="4.8119 4.8119"/></filter><filter id="fx15" x="-10%" y="-10%" width="120%" height="120%" filterUnits="userSpaceOnUse" primitiveUnits="userSpaceOnUse"><feComponentTransfer color-interpolation-filters="sRGB"><feFuncR type="discrete" tableValues="0 0"/><feFuncG type="discrete" tableValues="0 0"/><feFuncB type="discrete" tableValues="0 0"/><feFuncA type="linear" slope="0.34902" intercept="0"/></feComponentTransfer><feGaussianBlur stdDeviation="4.8119 4.8119"/></filter><filter id="fx16" x="-10%" y="-10%" width="120%" height="120%" filterUnits="userSpaceOnUse" primitiveUnits="userSpaceOnUse"><feComponentTransfer color-interpolation-filters="sRGB"><feFuncR type="discrete" tableValues="0 0"/><feFuncG type="discrete" tableValues="0 0"/><feFuncB type="discrete" tableValues="0 0"/><feFuncA type="linear" slope="0.34902" intercept="0"/></feComponentTransfer><feGaussianBlur stdDeviation="4.8119 4.8119"/></filter><filter id="fx17" x="-10%" y="-10%" width="120%" height="120%" filterUnits="userSpaceOnUse" primitiveUnits="userSpaceOnUse"><feComponentTransfer color-interpolation-filters="sRGB"><feFuncR type="discrete" tableValues="0 0"/><feFuncG type="discrete" tableValues="0 0"/><feFuncB type="discrete" tableValues="0 0"/><feFuncA type="linear" slope="0.34902" intercept="0"/></feComponentTransfer><feGaussianBlur stdDeviation="4.8119 4.8119"/></filter><filter id="fx18" x="-10%" y="-10%" width="120%" height="120%" filterUnits="userSpaceOnUse" primitiveUnits="userSpaceOnUse"><feComponentTransfer color-interpolation-filters="sRGB"><feFuncR type="discrete" tableValues="0 0"/><feFuncG type="discrete" tableValues="0 0"/><feFuncB type="discrete" tableValues="0 0"/><feFuncA type="linear" slope="0.34902" intercept="0"/></feComponentTransfer><feGaussianBlur stdDeviation="4.8119 4.8119"/></filter><filter id="fx19" x="-10%" y="-10%" width="120%" height="120%" filterUnits="userSpaceOnUse" primitiveUnits="userSpaceOnUse"><feComponentTransfer color-interpolation-filters="sRGB"><feFuncR type="discrete" tableValues="0 0"/><feFuncG type="discrete" tableValues="0 0"/><feFuncB type="discrete" tableValues="0 0"/><feFuncA type="linear" slope="0.34902" intercept="0"/></feComponentTransfer><feGaussianBlur stdDeviation="4.8119 4.8119"/></filter><filter id="fx20" x="-10%" y="-10%" width="120%" height="120%" filterUnits="userSpaceOnUse" primitiveUnits="userSpaceOnUse"><feComponentTransfer color-interpolation-filters="sRGB"><feFuncR type="discrete" tableValues="0 0"/><feFuncG type="discrete" tableValues="0 0"/><feFuncB type="discrete" tableValues="0 0"/><feFuncA type="linear" slope="0.34902" intercept="0"/></feComponentTransfer><feGaussianBlur stdDeviation="4.8119 4.8119"/></filter><filter id="fx21" x="-10%" y="-10%" width="120%" height="120%" filterUnits="userSpaceOnUse" primitiveUnits="userSpaceOnUse"><feComponentTransfer color-interpolation-filters="sRGB"><feFuncR type="discrete" tableValues="0 0"/><feFuncG type="discrete" tableValues="0 0"/><feFuncB type="discrete" tableValues="0 0"/><feFuncA type="linear" slope="0.34902" intercept="0"/></feComponentTransfer><feGaussianBlur stdDeviation="4.8119 4.8119"/></filter><filter id="fx22" x="-10%" y="-10%" width="120%" height="120%" filterUnits="userSpaceOnUse" primitiveUnits="userSpaceOnUse"><feComponentTransfer color-interpolation-filters="sRGB"><feFuncR type="discrete" tableValues="0 0"/><feFuncG type="discrete" tableValues="0 0"/><feFuncB type="discrete" tableValues="0 0"/><feFuncA type="linear" slope="0.34902" intercept="0"/></feComponentTransfer><feGaussianBlur stdDeviation="4.8119 4.8119"/></filter><filter id="fx23" x="-10%" y="-10%" width="120%" height="120%" filterUnits="userSpaceOnUse" primitiveUnits="userSpaceOnUse"><feComponentTransfer color-interpolation-filters="sRGB"><feFuncR type="discrete" tableValues="0 0"/><feFuncG type="discrete" tableValues="0 0"/><feFuncB type="discrete" tableValues="0 0"/><feFuncA type="linear" slope="0.34902" intercept="0"/></feComponentTransfer><feGaussianBlur stdDeviation="4.8119 4.8119"/></filter><filter id="fx24" x="-10%" y="-10%" width="120%" height="120%" filterUnits="userSpaceOnUse" primitiveUnits="userSpaceOnUse"><feComponentTransfer color-interpolation-filters="sRGB"><feFuncR type="discrete" tableValues="0 0"/><feFuncG type="discrete" tableValues="0 0"/><feFuncB type="discrete" tableValues="0 0"/><feFuncA type="linear" slope="0.34902" intercept="0"/></feComponentTransfer><feGaussianBlur stdDeviation="4.8119 4.8119"/></filter><filter id="fx25" x="-10%" y="-10%" width="120%" height="120%" filterUnits="userSpaceOnUse" primitiveUnits="userSpaceOnUse"><feComponentTransfer color-interpolation-filters="sRGB"><feFuncR type="discrete" tableValues="0 0"/><feFuncG type="discrete" tableValues="0 0"/><feFuncB type="discrete" tableValues="0 0"/><feFuncA type="linear" slope="0.34902" intercept="0"/></feComponentTransfer><feGaussianBlur stdDeviation="4.8119 4.8119"/></filter><clipPath id="clip26"><rect x="1604" y="1996" width="1980" height="1296"/></clipPath><clipPath id="clip27"><rect x="1848" y="2178" width="1686" height="758"/></clipPath><clipPath id="clip28"><rect x="1848" y="2178" width="1686" height="758"/></clipPath><clipPath id="clip29"><rect x="1848" y="2178" width="1686" height="758"/></clipPath><clipPath id="clip30"><rect x="1848" y="2178" width="1686" height="758"/></clipPath><clipPath id="clip31"><rect x="1848" y="2178" width="1686" height="758"/></clipPath><clipPath id="clip32"><rect x="1848" y="2178" width="1686" height="758"/></clipPath><clipPath id="clip33"><rect x="1848" y="2178" width="1686" height="758"/></clipPath><clipPath id="clip34"><rect x="1848" y="2178" width="1686" height="758"/></clipPath><clipPath id="clip35"><rect x="1848" y="2178" width="1686" height="758"/></clipPath><clipPath id="clip36"><rect x="1848" y="2178" width="1686" height="758"/></clipPath><clipPath id="clip37"><rect x="1848" y="2178" width="1686" height="758"/></clipPath><clipPath id="clip38"><rect x="1848" y="2178" width="1686" height="758"/></clipPath><clipPath id="clip39"><rect x="1848" y="2178" width="1686" height="758"/></clipPath><clipPath id="clip40"><rect x="1848" y="2178" width="1686" height="758"/></clipPath><clipPath id="clip41"><rect x="1848" y="2178" width="1686" height="758"/></clipPath><clipPath id="clip42"><rect x="1848" y="2178" width="1686" height="758"/></clipPath><clipPath id="clip43"><rect x="1848" y="2178" width="1686" height="758"/></clipPath><clipPath id="clip44"><rect x="1848" y="2178" width="1686" height="758"/></clipPath><clipPath id="clip45"><rect x="1848" y="2178" width="1686" height="758"/></clipPath><clipPath id="clip46"><rect x="1848" y="2178" width="1686" height="758"/></clipPath><clipPath id="clip47"><rect x="1848" y="2178" width="1686" height="758"/></clipPath><clipPath id="clip48"><rect x="1848" y="2178" width="1686" height="758"/></clipPath><clipPath id="clip49"><rect x="1848" y="2178" width="1686" height="758"/></clipPath><clipPath id="clip50"><rect x="1848" y="2178" width="1686" height="758"/></clipPath><clipPath id="clip51"><rect x="1848" y="2178" width="1686" height="758"/></clipPath><clipPath id="clip52"><rect x="1848" y="2178" width="1686" height="758"/></clipPath><linearGradient x1="1881" y1="2933" x2="1881" y2="2931" gradientUnits="userSpaceOnUse" spreadMethod="reflect" id="fill53"><stop offset="0" stop-color="#9B2D2A"/><stop offset="0.8" stop-color="#CB3D3A"/><stop offset="1" stop-color="#CE3B37"/></linearGradient><linearGradient x1="1945.5" y1="2933" x2="1945.5" y2="2926" gradientUnits="userSpaceOnUse" spreadMethod="reflect" id="fill54"><stop offset="0" stop-color="#9B2D2A"/><stop offset="0.8" stop-color="#CB3D3A"/><stop offset="1" stop-color="#CE3B37"/></linearGradient><linearGradient x1="2010.5" y1="2933" x2="2010.5" y2="2906" gradientUnits="userSpaceOnUse" spreadMethod="reflect" id="fill55"><stop offset="0" stop-color="#9B2D2A"/><stop offset="0.8" stop-color="#CB3D3A"/><stop offset="1" stop-color="#CE3B37"/></linearGradient><linearGradient x1="2075" y1="2933" x2="2075" y2="2878" gradientUnits="userSpaceOnUse" spreadMethod="reflect" id="fill56"><stop offset="0" stop-color="#9B2D2A"/><stop offset="0.8" stop-color="#CB3D3A"/><stop offset="1" stop-color="#CE3B37"/></linearGradient><linearGradient x1="2140" y1="2933" x2="2140" y2="2850" gradientUnits="userSpaceOnUse" spreadMethod="reflect" id="fill57"><stop offset="0" stop-color="#9B2D2A"/><stop offset="0.8" stop-color="#CB3D3A"/><stop offset="1" stop-color="#CE3B37"/></linearGradient><linearGradient x1="2204.5" y1="2933" x2="2204.5" y2="2816" gradientUnits="userSpaceOnUse" spreadMethod="reflect" id="fill58"><stop offset="0" stop-color="#9B2D2A"/><stop offset="0.8" stop-color="#CB3D3A"/><stop offset="1" stop-color="#CE3B37"/></linearGradient><linearGradient x1="2269" y1="2933" x2="2269" y2="2797" gradientUnits="userSpaceOnUse" spreadMethod="reflect" id="fill59"><stop offset="0" stop-color="#9B2D2A"/><stop offset="0.8" stop-color="#CB3D3A"/><stop offset="1" stop-color="#CE3B37"/></linearGradient><linearGradient x1="2334" y1="2933" x2="2334" y2="2767" gradientUnits="userSpaceOnUse" spreadMethod="reflect" id="fill60"><stop offset="0" stop-color="#9B2D2A"/><stop offset="0.8" stop-color="#CB3D3A"/><stop offset="1" stop-color="#CE3B37"/></linearGradient><linearGradient x1="2399" y1="2933" x2="2399" y2="2720" gradientUnits="userSpaceOnUse" spreadMethod="reflect" id="fill61"><stop offset="0" stop-color="#9B2D2A"/><stop offset="0.8" stop-color="#CB3D3A"/><stop offset="1" stop-color="#CE3B37"/></linearGradient><linearGradient x1="2463.5" y1="2933" x2="2463.5" y2="2716" gradientUnits="userSpaceOnUse" spreadMethod="reflect" id="fill62"><stop offset="0" stop-color="#9B2D2A"/><stop offset="0.8" stop-color="#CB3D3A"/><stop offset="1" stop-color="#CE3B37"/></linearGradient><linearGradient x1="2528" y1="2933" x2="2528" y2="2678" gradientUnits="userSpaceOnUse" spreadMethod="reflect" id="fill63"><stop offset="0" stop-color="#9B2D2A"/><stop offset="0.8" stop-color="#CB3D3A"/><stop offset="1" stop-color="#CE3B37"/></linearGradient><linearGradient x1="2593" y1="2933" x2="2593" y2="2660" gradientUnits="userSpaceOnUse" spreadMethod="reflect" id="fill64"><stop offset="0" stop-color="#9B2D2A"/><stop offset="0.8" stop-color="#CB3D3A"/><stop offset="1" stop-color="#CE3B37"/></linearGradient><linearGradient x1="2657.5" y1="2933" x2="2657.5" y2="2641" gradientUnits="userSpaceOnUse" spreadMethod="reflect" id="fill65"><stop offset="0" stop-color="#9B2D2A"/><stop offset="0.8" stop-color="#CB3D3A"/><stop offset="1" stop-color="#CE3B37"/></linearGradient><linearGradient x1="2722.5" y1="2933" x2="2722.5" y2="2589" gradientUnits="userSpaceOnUse" spreadMethod="reflect" id="fill66"><stop offset="0" stop-color="#9B2D2A"/><stop offset="0.8" stop-color="#CB3D3A"/><stop offset="1" stop-color="#CE3B37"/></linearGradient><linearGradient x1="2787" y1="2933" x2="2787" y2="2531" gradientUnits="userSpaceOnUse" spreadMethod="reflect" id="fill67"><stop offset="0" stop-color="#9B2D2A"/><stop offset="0.8" stop-color="#CB3D3A"/><stop offset="1" stop-color="#CE3B37"/></linearGradient><linearGradient x1="2852" y1="2933" x2="2852" y2="2524" gradientUnits="userSpaceOnUse" spreadMethod="reflect" id="fill68"><stop offset="0" stop-color="#9B2D2A"/><stop offset="0.8" stop-color="#CB3D3A"/><stop offset="1" stop-color="#CE3B37"/></linearGradient><linearGradient x1="2916.5" y1="2933" x2="2916.5" y2="2504" gradientUnits="userSpaceOnUse" spreadMethod="reflect" id="fill69"><stop offset="0" stop-color="#9B2D2A"/><stop offset="0.8" stop-color="#CB3D3A"/><stop offset="1" stop-color="#CE3B37"/></linearGradient><linearGradient x1="2981" y1="2933" x2="2981" y2="2474" gradientUnits="userSpaceOnUse" spreadMethod="reflect" id="fill70"><stop offset="0" stop-color="#9B2D2A"/><stop offset="0.8" stop-color="#CB3D3A"/><stop offset="1" stop-color="#CE3B37"/></linearGradient><linearGradient x1="3046" y1="2933" x2="3046" y2="2415" gradientUnits="userSpaceOnUse" spreadMethod="reflect" id="fill71"><stop offset="0" stop-color="#9B2D2A"/><stop offset="0.8" stop-color="#CB3D3A"/><stop offset="1" stop-color="#CE3B37"/></linearGradient><linearGradient x1="3111" y1="2933" x2="3111" y2="2392" gradientUnits="userSpaceOnUse" spreadMethod="reflect" id="fill72"><stop offset="0" stop-color="#9B2D2A"/><stop offset="0.8" stop-color="#CB3D3A"/><stop offset="1" stop-color="#CE3B37"/></linearGradient><linearGradient x1="3175.5" y1="2933" x2="3175.5" y2="2404" gradientUnits="userSpaceOnUse" spreadMethod="reflect" id="fill73"><stop offset="0" stop-color="#9B2D2A"/><stop offset="0.8" stop-color="#CB3D3A"/><stop offset="1" stop-color="#CE3B37"/></linearGradient><linearGradient x1="3240" y1="2933" x2="3240" y2="2383" gradientUnits="userSpaceOnUse" spreadMethod="reflect" id="fill74"><stop offset="0" stop-color="#9B2D2A"/><stop offset="0.8" stop-color="#CB3D3A"/><stop offset="1" stop-color="#CE3B37"/></linearGradient><linearGradient x1="3305" y1="2933" x2="3305" y2="2346" gradientUnits="userSpaceOnUse" spreadMethod="reflect" id="fill75"><stop offset="0" stop-color="#9B2D2A"/><stop offset="0.8" stop-color="#CB3D3A"/><stop offset="1" stop-color="#CE3B37"/></linearGradient><linearGradient x1="3369.5" y1="2933" x2="3369.5" y2="2272" gradientUnits="userSpaceOnUse" spreadMethod="reflect" id="fill76"><stop offset="0" stop-color="#9B2D2A"/><stop offset="0.8" stop-color="#CB3D3A"/><stop offset="1" stop-color="#CE3B37"/></linearGradient><linearGradient x1="3434.5" y1="2933" x2="3434.5" y2="2294" gradientUnits="userSpaceOnUse" spreadMethod="reflect" id="fill77"><stop offset="0" stop-color="#9B2D2A"/><stop offset="0.8" stop-color="#CB3D3A"/><stop offset="1" stop-color="#CE3B37"/></linearGradient><linearGradient x1="3499" y1="2933" x2="3499" y2="2238" gradientUnits="userSpaceOnUse" spreadMethod="reflect" id="fill78"><stop offset="0" stop-color="#9B2D2A"/><stop offset="0.8" stop-color="#CB3D3A"/><stop offset="1" stop-color="#CE3B37"/></linearGradient><linearGradient x1="2506.5" y1="3235" x2="2506.5" y2="3212" gradientUnits="userSpaceOnUse" spreadMethod="reflect" id="fill79"><stop offset="0" stop-color="#9B2D2A"/><stop offset="0.8" stop-color="#CB3D3A"/><stop offset="1" stop-color="#CE3B37"/></linearGradient></defs><g clip-path="url(#clip26)" transform="translate(-1604 -1996)"><rect x="1605" y="1997" width="1977" height="1293" fill="#FFFFFF"/><g><path d="M1848.5 2838.59 3531.5 2838.59M1848.5 2744.59 3531.5 2744.59M1848.5 2649.59 3531.5 2649.59M1848.5 2555.58 3531.5 2555.58M1848.5 2461.58 3531.5 2461.58M1848.5 2366.58 3531.5 2366.58M1848.5 2272.57 3531.5 2272.57M1848.5 2178.5 3531.5 2178.5" stroke="#D4E3F4" stroke-width="3.4375" stroke-linejoin="round" stroke-miterlimit="10" fill="none"/></g><g clip-path="url(#clip27)"><g filter="url(#fx0)" transform="translate(1849 2923)"><g><rect x="15.9999" y="16.3008" width="32.0003" height="1.9997" fill="#FF0000"/></g></g></g><g clip-path="url(#clip28)"><g filter="url(#fx1)" transform="translate(1913 2918)"><g><rect x="16.0001" y="16.3005" width="33" height="6.99987" fill="#FF0000"/></g></g></g><g clip-path="url(#clip29)"><g filter="url(#fx2)" transform="translate(1978 2898)"><g><rect x="16.0001" y="16.3005" width="33" height="26.9998" fill="#FF0000"/></g></g></g><g clip-path="url(#clip30)"><g filter="url(#fx3)" transform="translate(2043 2870)"><g><rect x="16" y="16.3003" width="32" height="55" fill="#FF0000"/></g></g></g><g clip-path="url(#clip31)"><g filter="url(#fx4)" transform="translate(2108 2842)"><g><rect x="16" y="16.3005" width="32" height="82.9998" fill="#FF0000"/></g></g></g><g clip-path="url(#clip32)"><g filter="url(#fx5)" transform="translate(2172 2808)"><g><rect x="16" y="16.3005" width="33" height="117" fill="#FF0000"/></g></g></g><g clip-path="url(#clip33)"><g filter="url(#fx6)" transform="translate(2237 2789)"><g><rect x="16" y="16.3005" width="32" height="136" fill="#FF0000"/></g></g></g><g clip-path="url(#clip34)"><g filter="url(#fx7)" transform="translate(2302 2759)"><g><rect x="16" y="16.3003" width="32" height="166" fill="#FF0000"/></g></g></g><g clip-path="url(#clip35)"><g filter="url(#fx8)" transform="translate(2367 2712)"><g><rect x="15.9998" y="16.3005" width="32" height="213" fill="#FF0000"/></g></g></g><g clip-path="url(#clip36)"><g filter="url(#fx9)" transform="translate(2431 2708)"><g><rect x="16.0002" y="16.3005" width="33" height="217" fill="#FF0000"/></g></g></g><g clip-path="url(#clip37)"><g filter="url(#fx10)" transform="translate(2496 2670)"><g><rect x="16.0002" y="16.3008" width="32" height="255" fill="#FF0000"/></g></g></g><g clip-path="url(#clip38)"><g filter="url(#fx11)" transform="translate(2561 2652)"><g><rect x="16" y="16.3005" width="32" height="273" fill="#FF0000"/></g></g></g><g clip-path="url(#clip39)"><g filter="url(#fx12)" transform="translate(2625 2633)"><g><rect x="16" y="16.3005" width="33" height="292" fill="#FF0000"/></g></g></g><g clip-path="url(#clip40)"><g filter="url(#fx13)" transform="translate(2690 2581)"><g><rect x="16" y="16.3005" width="33" height="344" fill="#FF0000"/></g></g></g><g clip-path="url(#clip41)"><g filter="url(#fx14)" transform="translate(2755 2523)"><g><rect x="16" y="16.3005" width="32" height="402" fill="#FF0000"/></g></g></g><g clip-path="url(#clip42)"><g filter="url(#fx15)" transform="translate(2820 2516)"><g><rect x="16" y="16.3008" width="32" height="409" fill="#FF0000"/></g></g></g><g clip-path="url(#clip43)"><g filter="url(#fx16)" transform="translate(2884 2496)"><g><rect x="15.9998" y="16.3003" width="33" height="429" fill="#FF0000"/></g></g></g><g clip-path="url(#clip44)"><g filter="url(#fx17)" transform="translate(2949 2466)"><g><rect x="15.9998" y="16.3005" width="32.0003" height="459" fill="#FF0000"/></g></g></g><g clip-path="url(#clip45)"><g filter="url(#fx18)" transform="translate(3014 2407)"><g><rect x="16.0002" y="16.3003" width="32" height="518" fill="#FF0000"/></g></g></g><g clip-path="url(#clip46)"><g filter="url(#fx19)" transform="translate(3079 2384)"><g><rect x="16.0002" y="16.3008" width="32" height="541" fill="#FF0000"/></g></g></g><g clip-path="url(#clip47)"><g filter="url(#fx20)" transform="translate(3143 2396)"><g><rect x="16" y="16.3003" width="33" height="529" fill="#FF0000"/></g></g></g><g clip-path="url(#clip48)"><g filter="url(#fx21)" transform="translate(3208 2375)"><g><rect x="16" y="16.3003" width="32" height="550" fill="#FF0000"/></g></g></g><g clip-path="url(#clip49)"><g filter="url(#fx22)" transform="translate(3273 2338)"><g><rect x="16" y="16.3005" width="32" height="587" fill="#FF0000"/></g></g></g><g clip-path="url(#clip50)"><g filter="url(#fx23)" transform="translate(3337 2264)"><g><rect x="16" y="16.3003" width="33" height="661" fill="#FF0000"/></g></g></g><g clip-path="url(#clip51)"><g filter="url(#fx24)" transform="translate(3402 2286)"><g><rect x="16" y="16.3003" width="33" height="639" fill="#FF0000"/></g></g></g><g clip-path="url(#clip52)"><g filter="url(#fx25)" transform="translate(3467 2230)"><g><rect x="15.9998" y="16.3008" width="32" height="695" fill="#FF0000"/></g></g></g><g><rect x="1865" y="2931" width="32.0004" height="1.99976" fill="url(#fill53)"/></g><g><rect x="1929" y="2926" width="33" height="6.99976" fill="url(#fill54)"/></g><g><rect x="1994" y="2906" width="33" height="26.9998" fill="url(#fill55)"/></g><g><rect x="2059" y="2878" width="32" height="55" fill="url(#fill56)"/></g><g><rect x="2124" y="2850" width="32" height="82.9998" fill="url(#fill57)"/></g><g><rect x="2188" y="2816" width="33" height="117" fill="url(#fill58)"/></g><g><rect x="2253" y="2797" width="32" height="136" fill="url(#fill59)"/></g><g><rect x="2318" y="2767" width="32" height="166" fill="url(#fill60)"/></g><g><rect x="2383" y="2720" width="32" height="213" fill="url(#fill61)"/></g><g><rect x="2447" y="2716" width="33" height="217" fill="url(#fill62)"/></g><g><rect x="2512" y="2678" width="32" height="255" fill="url(#fill63)"/></g><g><rect x="2577" y="2660" width="32" height="273" fill="url(#fill64)"/></g><g><rect x="2641" y="2641" width="33" height="292" fill="url(#fill65)"/></g><g><rect x="2706" y="2589" width="33" height="344" fill="url(#fill66)"/></g><g><rect x="2771" y="2531" width="32" height="402" fill="url(#fill67)"/></g><g><rect x="2836" y="2524" width="32" height="409" fill="url(#fill68)"/></g><g><rect x="2900" y="2504" width="33" height="429" fill="url(#fill69)"/></g><g><rect x="2965" y="2474" width="32.0002" height="459" fill="url(#fill70)"/></g><g><rect x="3030" y="2415" width="32" height="518" fill="url(#fill71)"/></g><g><rect x="3095" y="2392" width="32" height="541" fill="url(#fill72)"/></g><g><rect x="3159" y="2404" width="33" height="529" fill="url(#fill73)"/></g><g><rect x="3224" y="2383" width="32" height="550" fill="url(#fill74)"/></g><g><rect x="3289" y="2346" width="32" height="587" fill="url(#fill75)"/></g><g><rect x="3353" y="2272" width="33" height="661" fill="url(#fill76)"/></g><g><rect x="3418" y="2294" width="33" height="639" fill="url(#fill77)"/></g><g><rect x="3483" y="2238" width="32" height="695" fill="url(#fill78)"/></g><g><path d="M1848.5 2932.5 3531.5 2932.5" stroke="#D4E3F4" stroke-width="3.4375" stroke-linejoin="round" stroke-miterlimit="10" fill="none" fill-rule="evenodd"/></g><g><text fill="#1F497D" font-family="Calibri,Calibri_MSFontService,sans-serif" font-weight="400" font-size="41" transform="matrix(1 0 0 1 1789.4 2944)">0</text></g><g><text fill="#1F497D" font-family="Calibri,Calibri_MSFontService,sans-serif" font-weight="400" font-size="41" transform="matrix(1 0 0 1 1747.6 2850)">200</text></g><g><text fill="#1F497D" font-family="Calibri,Calibri_MSFontService,sans-serif" font-weight="400" font-size="41" transform="matrix(1 0 0 1 1747.6 2756)">400</text></g><g><text fill="#1F497D" font-family="Calibri,Calibri_MSFontService,sans-serif" font-weight="400" font-size="41" transform="matrix(1 0 0 1 1747.6 2661)">600</text></g><g><text fill="#1F497D" font-family="Calibri,Calibri_MSFontService,sans-serif" font-weight="400" font-size="41" transform="matrix(1 0 0 1 1747.6 2567)">800</text></g><g><text fill="#1F497D" font-family="Calibri,Calibri_MSFontService,sans-serif" font-weight="400" font-size="41" transform="matrix(1 0 0 1 1726.7 2473)">1000</text></g><g><text fill="#1F497D" font-family="Calibri,Calibri_MSFontService,sans-serif" font-weight="400" font-size="41" transform="matrix(1 0 0 1 1726.7 2379)">1200</text></g><g><text fill="#1F497D" font-family="Calibri,Calibri_MSFontService,sans-serif" font-weight="400" font-size="41" transform="matrix(1 0 0 1 1726.7 2284)">1400</text></g><g><text fill="#1F497D" font-family="Calibri,Calibri_MSFontService,sans-serif" font-weight="400" font-size="41" transform="matrix(1 0 0 1 1726.7 2190)">1600</text></g><g><text fill="#1F497D" font-family="Calibri,Calibri_MSFontService,sans-serif" font-weight="400" font-size="41" transform="matrix(6.12323e-17 -1 1 6.12323e-17 1894.76 3001)">50</text></g><g><text fill="#1F497D" font-family="Calibri,Calibri_MSFontService,sans-serif" font-weight="400" font-size="41" transform="matrix(6.12323e-17 -1 1 6.12323e-17 1959.48 3022)">250</text></g><g><text fill="#1F497D" font-family="Calibri,Calibri_MSFontService,sans-serif" font-weight="400" font-size="41" transform="matrix(6.12323e-17 -1 1 6.12323e-17 2024.21 3043)">1000</text></g><g><text fill="#1F497D" font-family="Calibri,Calibri_MSFontService,sans-serif" font-weight="400" font-size="41" transform="matrix(6.12323e-17 -1 1 6.12323e-17 2088.94 3043)">2000</text></g><g><text fill="#1F497D" font-family="Calibri,Calibri_MSFontService,sans-serif" font-weight="400" font-size="41" transform="matrix(6.12323e-17 -1 1 6.12323e-17 2153.66 3043)">3000</text></g><g><text fill="#1F497D" font-family="Calibri,Calibri_MSFontService,sans-serif" font-weight="400" font-size="41" transform="matrix(6.12323e-17 -1 1 6.12323e-17 2218.39 3043)">4000</text></g><g><text fill="#1F497D" font-family="Calibri,Calibri_MSFontService,sans-serif" font-weight="400" font-size="41" transform="matrix(6.12323e-17 -1 1 6.12323e-17 2283.12 3043)">5000</text></g><g><text fill="#1F497D" font-family="Calibri,Calibri_MSFontService,sans-serif" font-weight="400" font-size="41" transform="matrix(6.12323e-17 -1 1 6.12323e-17 2347.84 3043)">6000</text></g><g><text fill="#1F497D" font-family="Calibri,Calibri_MSFontService,sans-serif" font-weight="400" font-size="41" transform="matrix(6.12323e-17 -1 1 6.12323e-17 2412.57 3043)">7000</text></g><g><text fill="#1F497D" font-family="Calibri,Calibri_MSFontService,sans-serif" font-weight="400" font-size="41" transform="matrix(6.12323e-17 -1 1 6.12323e-17 2477.3 3043)">8000</text></g><g><text fill="#1F497D" font-family="Calibri,Calibri_MSFontService,sans-serif" font-weight="400" font-size="41" transform="matrix(6.12323e-17 -1 1 6.12323e-17 2542.02 3043)">9000</text></g><g><text fill="#1F497D" font-family="Calibri,Calibri_MSFontService,sans-serif" font-weight="400" font-size="41" transform="matrix(6.12323e-17 -1 1 6.12323e-17 2606.75 3063)">10000</text></g><g><text fill="#1F497D" font-family="Calibri,Calibri_MSFontService,sans-serif" font-weight="400" font-size="41" transform="matrix(6.12323e-17 -1 1 6.12323e-17 2671.48 3063)">11000</text></g><g><text fill="#1F497D" font-family="Calibri,Calibri_MSFontService,sans-serif" font-weight="400" font-size="41" transform="matrix(6.12323e-17 -1 1 6.12323e-17 2736.2 3063)">12000</text></g><g><text fill="#1F497D" font-family="Calibri,Calibri_MSFontService,sans-serif" font-weight="400" font-size="41" transform="matrix(6.12323e-17 -1 1 6.12323e-17 2800.93 3063)">13000</text></g><g><text fill="#1F497D" font-family="Calibri,Calibri_MSFontService,sans-serif" font-weight="400" font-size="41" transform="matrix(6.12323e-17 -1 1 6.12323e-17 2865.66 3063)">14000</text></g><g><text fill="#1F497D" font-family="Calibri,Calibri_MSFontService,sans-serif" font-weight="400" font-size="41" transform="matrix(6.12323e-17 -1 1 6.12323e-17 2930.38 3063)">15000</text></g><g><text fill="#1F497D" font-family="Calibri,Calibri_MSFontService,sans-serif" font-weight="400" font-size="41" transform="matrix(6.12323e-17 -1 1 6.12323e-17 2995.11 3063)">16000</text></g><g><text fill="#1F497D" font-family="Calibri,Calibri_MSFontService,sans-serif" font-weight="400" font-size="41" transform="matrix(6.12323e-17 -1 1 6.12323e-17 3059.84 3063)">17000</text></g><g><text fill="#1F497D" font-family="Calibri,Calibri_MSFontService,sans-serif" font-weight="400" font-size="41" transform="matrix(6.12323e-17 -1 1 6.12323e-17 3124.56 3063)">18000</text></g><g><text fill="#1F497D" font-family="Calibri,Calibri_MSFontService,sans-serif" font-weight="400" font-size="41" transform="matrix(6.12323e-17 -1 1 6.12323e-17 3189.29 3063)">19000</text></g><g><text fill="#1F497D" font-family="Calibri,Calibri_MSFontService,sans-serif" font-weight="400" font-size="41" transform="matrix(6.12323e-17 -1 1 6.12323e-17 3254.01 3063)">20000</text></g><g><text fill="#1F497D" font-family="Calibri,Calibri_MSFontService,sans-serif" font-weight="400" font-size="41" transform="matrix(6.12323e-17 -1 1 6.12323e-17 3318.74 3063)">21000</text></g><g><text fill="#1F497D" font-family="Calibri,Calibri_MSFontService,sans-serif" font-weight="400" font-size="41" transform="matrix(6.12323e-17 -1 1 6.12323e-17 3383.47 3063)">22000</text></g><g><text fill="#1F497D" font-family="Calibri,Calibri_MSFontService,sans-serif" font-weight="400" font-size="41" transform="matrix(6.12323e-17 -1 1 6.12323e-17 3448.19 3063)">23000</text></g><g><text fill="#1F497D" font-family="Calibri,Calibri_MSFontService,sans-serif" font-weight="400" font-size="41" transform="matrix(6.12323e-17 -1 1 6.12323e-17 3512.92 3063)">24000</text></g><g><text fill="#1F497D" font-family="Calibri,Calibri_MSFontService,sans-serif" font-weight="700" font-size="41" transform="matrix(6.12323e-17 -1 1 6.12323e-17 1701.61 2663)">Milliseconds</text></g><g><text fill="#1F497D" font-family="Calibri,Calibri_MSFontService,sans-serif" font-weight="700" font-size="41" transform="matrix(1 0 0 1 2536.63 3116)">Actions simulated</text></g><g><text fill="#1F497D" font-family="Calibri,Calibri_MSFontService,sans-serif" font-weight="700" font-size="73" transform="matrix(1 0 0 1 1825.55 2102)">Relationship between simulated actions and mean</text></g><g><rect x="2495" y="3212" width="23" height="23" fill="url(#fill79)"/></g><g><text fill="#1F497D" font-family="Calibri,Calibri_MSFontService,sans-serif" font-weight="400" font-size="41" transform="matrix(1 0 0 1 2527.63 3235)">Mean (ms)</text></g><rect x="1605.5" y="1997.5" width="1977" height="1293" stroke="#D4E3F4" stroke-width="3.4375" stroke-linejoin="round" stroke-miterlimit="10" fill="none"/></g></svg>