<svg width="1897" height="1096" xmlns="http://www.w3.org/2000/svg" xml:space="preserve" overflow="hidden"><defs><filter id="fx0" x="-10%" y="-10%" width="120%" height="120%" filterUnits="userSpaceOnUse" primitiveUnits="userSpaceOnUse"><feComponentTransfer color-interpolation-filters="sRGB"><feFuncR type="discrete" tableValues="0 0"/><feFuncG type="discrete" tableValues="0 0"/><feFuncB type="discrete" tableValues="0 0"/><feFuncA type="linear" slope="0.34902" intercept="0"/></feComponentTransfer><feGaussianBlur stdDeviation="4.8119 4.8119"/></filter><filter id="fx1" x="-10%" y="-10%" width="120%" height="120%" filterUnits="userSpaceOnUse" primitiveUnits="userSpaceOnUse"><feComponentTransfer color-interpolation-filters="sRGB"><feFuncR type="discrete" tableValues="0 0"/><feFuncG type="discrete" tableValues="0 0"/><feFuncB type="discrete" tableValues="0 0"/><feFuncA type="linear" slope="0.34902" intercept="0"/></feComponentTransfer><feGaussianBlur stdDeviation="4.8119 4.8119"/></filter><clipPath id="clip2"><rect x="5059" y="1436" width="1897" height="1096"/></clipPath><clipPath id="clip3"><rect x="5303" y="1618" width="1551" height="612"/></clipPath><clipPath id="clip4"><rect x="5303" y="1618" width="1551" height="612"/></clipPath></defs><g clip-path="url(#clip2)" transform="translate(-5059 -1436)"><rect x="5060" y="1437" width="1894" height="1093" fill="#FFFFFF"/><g><path d="M5303.5 2140.57 6851.5 2140.57M5303.5 2053.57 6851.5 2053.57M5303.5 1966.56 6851.5 1966.56M5303.5 1879.56 6851.5 1879.56M5303.5 1792.56 6851.5 1792.56M5303.5 1705.56 6851.5 1705.56M5303.5 1618.5 6851.5 1618.5" stroke="#D4E3F4" stroke-width="3.4375" stroke-linejoin="round" stroke-miterlimit="10" fill="none"/></g><g><path d="M5561.68 1618.5 5561.68 2227.5M5819.69 1618.5 5819.69 2227.5M6077.7 1618.5 6077.7 2227.5M6335.71 1618.5 6335.71 2227.5M6593.72 1618.5 6593.72 2227.5M6851.5 1618.5 6851.5 2227.5" stroke="#D4E3F4" stroke-width="3.4375" stroke-linejoin="round" stroke-miterlimit="10" fill="none"/></g><g><path d="M0 0 0.000360892 609" stroke="#8EB4E3" stroke-width="3.4375" stroke-linejoin="round" stroke-miterlimit="10" fill="none" fill-rule="evenodd" transform="matrix(1 0 0 -1 5303.5 2227.5)"/></g><g><path d="M5303.5 2227.5 6851.5 2227.5" stroke="#D4E3F4" stroke-width="3.4375" stroke-linejoin="round" stroke-miterlimit="10" fill="none" fill-rule="evenodd"/></g><g clip-path="url(#clip3)"><g filter="url(#fx0)" transform="translate(5288 1697)"><g><path d="M17.5 537.801 20.6744 536.874 27.6746 532.874 40.6751 528.873 66.6759 517.873 92.6768 505.873 118.678 499.873 144.678 488.872 169.679 473.872 195.68 472.872 221.681 445.871 247.682 450.871 273.683 431.87 298.684 428.87 324.684 419.87 350.685 395.869 376.686 364.868 402.687 375.868 427.688 346.867 453.689 375.868 479.689 347.868 505.69 336.867 531.691 332.867 556.692 322.867 582.693 319.867 608.694 295.866 634.695 275.865 660.695 287.866 685.696 276.865 711.697 253.864 737.698 248.864 763.699 218.863 789.7 218.863 814.7 217.863 840.701 199.863 866.702 195.863 892.703 177.862 918.704 164.862 943.705 142.861 969.706 124.86 995.706 105.86 1021.71 97.8593 1047.71 106.86 1072.71 122.86 1098.71 75.8586 1124.71 72.8585 1150.71 55.858 1176.71 56.858 1201.71 44.8576 1227.71 43.8576 1253.71 17.8004 1279.5 20.8568" stroke="#4F81BD" stroke-width="3" stroke-linecap="round" stroke-linejoin="round" stroke-miterlimit="10" fill="none"/></g></g></g><g clip-path="url(#clip4)"><g filter="url(#fx1)" transform="translate(5288 2156)"><g><path d="M17.5 79.8004 20.6744 78.8736 27.6746 77.8736 40.6751 77.8736 66.6759 76.8736 92.6768 72.8734 118.678 74.8735 144.678 72.8734 169.679 69.8733 195.68 73.8735 221.681 63.8731 247.682 73.8735 273.683 70.8734 298.684 67.8733 324.684 67.8733 350.685 52.8728 376.686 43.8725 402.687 54.8728 427.688 53.8728 453.689 66.8732 479.689 54.8728 505.69 61.8731 531.691 48.8727 556.692 33.8722 582.693 46.8726 608.694 46.8726 634.695 45.8726 660.695 46.8726 685.696 44.8725 711.697 41.8724 737.698 40.8724 763.699 17.8005 789.7 43.8725 814.7 54.8728 840.701 44.8725 866.702 52.8728 892.703 40.8724 918.704 49.8727 943.705 31.8721 969.706 40.8724 995.706 18.8717 1021.71 18.8717 1047.71 35.8722 1072.71 42.8725 1098.71 28.872 1124.71 41.8724 1150.71 20.8717 1176.71 48.8727 1201.71 31.8721 1227.71 22.8718 1253.71 28.872 1279.5 41.8724" stroke="#C0504D" stroke-width="3" stroke-linecap="round" stroke-linejoin="round" stroke-miterlimit="10" fill="none"/></g></g></g><g><path d="M5305.5 2226.5 5308.67 2225.57 5315.67 2221.57 5328.68 2217.57 5354.68 2206.57 5380.68 2194.57 5406.68 2188.57 5432.68 2177.57 5457.68 2162.57 5483.68 2161.57 5509.68 2134.57 5535.68 2139.57 5561.68 2120.57 5586.68 2117.57 5612.68 2108.57 5638.69 2084.57 5664.69 2053.57 5690.69 2064.57 5715.69 2035.57 5741.69 2064.57 5767.69 2036.57 5793.69 2025.57 5819.69 2021.57 5844.69 2011.57 5870.69 2008.57 5896.69 1984.57 5922.69 1964.56 5948.7 1976.57 5973.7 1965.56 5999.7 1942.56 6025.7 1937.56 6051.7 1907.56 6077.7 1907.56 6102.7 1906.56 6128.7 1888.56 6154.7 1884.56 6180.7 1866.56 6206.7 1853.56 6231.7 1831.56 6257.71 1813.56 6283.71 1794.56 6309.71 1786.56 6335.71 1795.56 6360.71 1811.56 6386.71 1764.56 6412.71 1761.56 6438.71 1744.56 6464.71 1745.56 6489.71 1733.56 6515.71 1732.56 6541.71 1706.5 6567.5 1709.56" stroke="#4F81BD" stroke-width="3.4375" stroke-linecap="round" stroke-linejoin="round" stroke-miterlimit="10" fill="none"/></g><g><path d="M5305.5 2227.5 5308.67 2226.57 5315.67 2225.57 5328.68 2225.57 5354.68 2224.57 5380.68 2220.57 5406.68 2222.57 5432.68 2220.57 5457.68 2217.57 5483.68 2221.57 5509.68 2211.57 5535.68 2221.57 5561.68 2218.57 5586.68 2215.57 5612.68 2215.57 5638.69 2200.57 5664.69 2191.57 5690.69 2202.57 5715.69 2201.57 5741.69 2214.57 5767.69 2202.57 5793.69 2209.57 5819.69 2196.57 5844.69 2181.57 5870.69 2194.57 5896.69 2194.57 5922.69 2193.57 5948.7 2194.57 5973.7 2192.57 5999.7 2189.57 6025.7 2188.57 6051.7 2165.5 6077.7 2191.57 6102.7 2202.57 6128.7 2192.57 6154.7 2200.57 6180.7 2188.57 6206.7 2197.57 6231.7 2179.57 6257.71 2188.57 6283.71 2166.57 6309.71 2166.57 6335.71 2183.57 6360.71 2190.57 6386.71 2176.57 6412.71 2189.57 6438.71 2168.57 6464.71 2196.57 6489.71 2179.57 6515.71 2170.57 6541.71 2176.57 6567.5 2189.57" stroke="#C0504D" stroke-width="3.4375" stroke-linecap="round" stroke-linejoin="round" stroke-miterlimit="10" fill="none"/></g><g><text fill="#1F497D" font-family="Calibri,Calibri_MSFontService,sans-serif" font-weight="400" font-size="41" transform="matrix(1 0 0 1 5244.09 2239)">0</text></g><g><text fill="#1F497D" font-family="Calibri,Calibri_MSFontService,sans-serif" font-weight="400" font-size="41" transform="matrix(1 0 0 1 5202.29 2152)">500</text></g><g><text fill="#1F497D" font-family="Calibri,Calibri_MSFontService,sans-serif" font-weight="400" font-size="41" transform="matrix(1 0 0 1 5181.39 2065)">1000</text></g><g><text fill="#1F497D" font-family="Calibri,Calibri_MSFontService,sans-serif" font-weight="400" font-size="41" transform="matrix(1 0 0 1 5181.39 1978)">1500</text></g><g><text fill="#1F497D" font-family="Calibri,Calibri_MSFontService,sans-serif" font-weight="400" font-size="41" transform="matrix(1 0 0 1 5181.39 1891)">2000</text></g><g><text fill="#1F497D" font-family="Calibri,Calibri_MSFontService,sans-serif" font-weight="400" font-size="41" transform="matrix(1 0 0 1 5181.39 1804)">2500</text></g><g><text fill="#1F497D" font-family="Calibri,Calibri_MSFontService,sans-serif" font-weight="400" font-size="41" transform="matrix(1 0 0 1 5181.39 1717)">3000</text></g><g><text fill="#1F497D" font-family="Calibri,Calibri_MSFontService,sans-serif" font-weight="400" font-size="41" transform="matrix(1 0 0 1 5181.39 1630)">3500</text></g><g><text fill="#1F497D" font-family="Calibri,Calibri_MSFontService,sans-serif" font-weight="400" font-size="41" transform="matrix(1 0 0 1 5292.81 2292)">0</text></g><g><text fill="#1F497D" font-family="Calibri,Calibri_MSFontService,sans-serif" font-weight="400" font-size="41" transform="matrix(1 0 0 1 5519.48 2292)">5000</text></g><g><text fill="#1F497D" font-family="Calibri,Calibri_MSFontService,sans-serif" font-weight="400" font-size="41" transform="matrix(1 0 0 1 5767.05 2292)">10000</text></g><g><text fill="#1F497D" font-family="Calibri,Calibri_MSFontService,sans-serif" font-weight="400" font-size="41" transform="matrix(1 0 0 1 6025.08 2292)">15000</text></g><g><text fill="#1F497D" font-family="Calibri,Calibri_MSFontService,sans-serif" font-weight="400" font-size="41" transform="matrix(1 0 0 1 6283.1 2292)">20000</text></g><g><text fill="#1F497D" font-family="Calibri,Calibri_MSFontService,sans-serif" font-weight="400" font-size="41" transform="matrix(1 0 0 1 6541.12 2292)">25000</text></g><g><text fill="#1F497D" font-family="Calibri,Calibri_MSFontService,sans-serif" font-weight="400" font-size="41" transform="matrix(1 0 0 1 6799.15 2292)">30000</text></g><g><text fill="#1F497D" font-family="Calibri,Calibri_MSFontService,sans-serif" font-weight="700" font-size="41" transform="matrix(6.12323e-17 -1 1 6.12323e-17 5156.3 2030)">Milliseconds</text></g><g><text fill="#1F497D" font-family="Calibri,Calibri_MSFontService,sans-serif" font-weight="700" font-size="41" transform="matrix(1 0 0 1 5923.94 2357)">Actions simulated</text></g><g><text fill="#1F497D" font-family="Calibri,Calibri_MSFontService,sans-serif" font-weight="700" font-size="73" transform="matrix(1 0 0 1 5714.64 1541)">Standard Deviation</text></g><g><path d="M5699.5 2463.5 5787.5 2463.5" stroke="#4F81BD" stroke-width="3.4375" stroke-linecap="round" stroke-linejoin="round" stroke-miterlimit="10" fill="none" fill-rule="evenodd"/></g><g><text fill="#1F497D" font-family="Calibri,Calibri_MSFontService,sans-serif" font-weight="400" font-size="41" transform="matrix(1 0 0 1 5797.1 2475)">Mean (ms)</text></g><g><path d="M6030.5 2463.5 6118.5 2463.5" stroke="#C0504D" stroke-width="3.4375" stroke-linecap="round" stroke-linejoin="round" stroke-miterlimit="10" fill="none" fill-rule="evenodd"/></g><g><text fill="#1F497D" font-family="Calibri,Calibri_MSFontService,sans-serif" font-weight="400" font-size="41" transform="matrix(1 0 0 1 6127.98 2475)">StdDev (ms)</text></g><rect x="5060.5" y="1437.5" width="1894" height="1093" stroke="#D4E3F4" stroke-width="3.4375" stroke-linejoin="round" stroke-miterlimit="10" fill="none"/></g></svg>